<svg xmlns="http://www.w3.org/2000/svg" width="3250" height="3250" viewBox="0 0 3250 3250">
  <defs>
    <style>
      .cls-1 {
        fill: #fff;
        fill-rule: evenodd;
      }
    </style>
  </defs>
  <path id="Preenchimento_de_Cor_1" data-name="Preenchimento de Cor 1" class="cls-1" d="M2962,554c16.01-.57,20.07,1.754,28,8,4.97,27.141,8.64,60.374,16,85v52c1.33,1.333,2.67,2.667,4,4v2c-0.63,3.847-7.08,10.808-4,20,0.78,2.317,4.46,7.365,4,12q-1.995,5.5-4,11c4.04,16.881,7,33.547,7,55V988c11.73,27.05,9.23,121.35,4,141-4.02,15.08.3,34.26-4,45-5.6,13.97,1.51,57.45,0,65-1.33,1-2.67,2-4,3v65c-4.43,10.37,1.28,29.47-3,43-2.85,9.02-8.64,25.12-12,35-3.3,9.72-.53,25.11-3,32v30c-0.06,14.84-2.33,46.32-8,61v76c-3.43,11.47-10.23,92.55,0,119v27c4.8,12.85,16.81,39.08,12,59-1.64,6.8-3.8,11.34-5,18q0.495,11.505,1,23c-4.09,12.92-12.43,29.71-16,43-38.85,14.49-44.39-5.99-55-30v-20c-3.8-10.5-5.27-31.47,0-45,3.03-7.77,8.15-17.62,11-24,2.55-5.71-3.67-24.01,0-35,6.69-20.02,4-59.7,4-89,0-42.73,3.67-67.6,1-94,1-2.67,2-5.33,3-8v-75c0.37-6.92,3.39-7.19,3-12-2.64-32.35,10.79-73.87,0-106-4.84-14.39,10.15-19.48-2-36,4.66-13.05-2.15-21.97-1-28,1.37-7.19,6.5-144.85-4-175-6.54-18.79,2.51-61.78-3-82-5.71-20.97-1.55-77.749-1-113,0.11-7.217,5.83-10.715,4-16-8.62-24.872,4-60.525,4-95C2938.99,710.675,2942.6,619.045,2962,554Zm37,270c-1.26,4.654-1.75,5.243,3,7v-5C3000.2,823.958,3001.98,825.293,2999,824Zm-721,930c-2.33-.67-4.67-1.33-7-2-2.03-10.82-10.58-14.06-15-22-21.86-39.27-29.08-27.11-69-44h-13c-20.32-8.55-37.77-24.5-54-37-27.76-21.38-58.32-34.84-81-61-18.78-21.66-36.15-64.39-45-94-4.29-14.34-16.98-34.37-23-49v-12c-5.23-13.65-9.44-30.13-15-44v-65c0-38.89,6.56-99.17,19-126,4.6-9.91-.25-16.54,3-26l8-8c12.5-27.01,18.95-52.39,34-77,7.8-12.75,21.2-22.11,27-38h6c0.33-1.67.67-3.33,1-5,15.74-29.05,47.98-51.24,85-59,5.68-1.191,33.07,9.752,42,7,7.06-2.175,54.37-9.724,63-6,5.08,2.2,17.39.043,25,3,16.47,6.4,63.69,22.45,81,10,0.24-8.043,2.78-9.036,4-14q-0.495-20.5-1-41c1.87-9.875,3.6-26.071,8-39q0.495-16,1-32c13-9.158,14.48-17.6,28-7,0.17,10.252,4.76,23.426,8,31v23c2.18,6.458,6.34,23.749,8,32q-1.995,4.5-4,9c1.24,16.356,4.08,61.81,11,78v32c0,23.47.78,31.32,4,44v41a706.541,706.541,0,0,0,4,78c0.71,6.98-3.06,5.42-1,10v51c4.32,39.65,6.57,74.5-21,95-23.56-1.85-30.4-23.81-38-42v-47c-6.48-18.64-7.19-99.55,0-130v-1c-1.33-2.67-2.67-5.33-4-8-4.76-16.35,3.18-44.09-3-62-1.73-5-6.65-7.19-9-14h-69c-2.88-1.05-34.95-8.45-37-8-16.55,3.6-41.99,11.11-57,16q-7.005-.495-14-1c-3.71,1.09-10.93,6.81-15,8h-12q-3,3.495-6,7c-10.01,6.62-20.15,8.53-29,16-8.64,7.3-17.34,26.74-24,37-7.99,12.3-22.92,25.64-29,39-21.63,47.49-31.18,107.82-8,159,8.51,18.78,46.26,49.75,66,58,10.55,4.41,19.07,2.86,30,7,13.45,5.1,27.76,17.48,41,23h9c6.13,3.41,13.75,12.03,21,15,25.91,10.63,45.55,4.34,65,22,24.28,22.04,54.53,76.12,72,106,8.43,14.42,9.74,33.6,24,42,1-.67,2-1.33,3-2,0.12-33.92,58.03-51.12,83-63h20c24.88-8.37,45.18-4.33,55-29,6.59-16.56,3.31-35,11-53,8.05-18.83,18.48-39.71,26-58,4.61-11.2,3.13-29.35,8-40,17.23-37.67,22.14-88.13,33-132,3.44-13.89,14.07-26.8,19-38,9.58-21.76,15.8-47.6,23-69,5.43-16.15,1.4-31.65,7-48,11.02-32.18,16.41-74.03,30-108V972c11.12-28.366,12.14-57.1,27-80,28.41-.094,25.46,20.876,33,36,12.46,24.986,22.92,54.44,30,87q-0.495,10.5-1,21c1.67,4.27,6.25,17.74,8,22v24c7.02,16.54,6.85,40.54,15,58v28c11.93,29.04,13.69,69.06,23,105q-0.495,13.005-1,26c2.77,13.5,11.69,33.19,16,45q-0.495,7.5-1,15c1.08,5.3,5.87,12.93,8,17v24c2.21,6.53,5.61,22.96,8,31,4.45,14.93-3.95,41.17,3,59,7.85,20.15,11.92,67.94,11,86-0.28,5.48,5.87,24.42,8,29,4.26,9.16,1.1,37.83,4,50,4.09,17.19,10.37,55.41,4,80,17.15,11.84-1.48,45.69,7,67,19.09,47.94.25,134.44,15,182,3.62,11.69-5.27,33.25,3,40,4.42,1.37,16.87-6.74,32-7,15.68,9.8,40.8,18.96,51,34,23.16,34.14,15.43,167.83-4,198-5.46,8.48-20.42,21.85-30,26-7.84,3.39-10.33-1.94-15,4,12.04,41.62-8.73,90.8-28,105h-18c-8.16-10.3-18.18-17.16-24-31v-16c-4.45-13.12-6.12-31.43-11-44V2150c-2.9-9.13-12.77-56.1-7-67-2.9-7.24-4.73-19.47-8-26v-32c-19.84-44.81-9.81-121.4-30-171v-27c-10.79-27.51-16.32-135.15-32-148-13.01,1.54-26.96,10.67-38,15-15.28,6-38.9-2.02-51,7-4.84.43-10.94-5.77-17-4-22.5,6.59-50.24,8.14-79,8-13.78-.07-23.42-5.95-39-3,0.32,23.52-7.46,46.21-15,64v17c-15.94,35.15-25.97,79.65-38,116q0.495,6,1,12c-0.83,4.88-5.83,14.85-8,20v17c-16.31,37.02-23.83,85.61-38,127v16c-8.92,22.38-13.31,50.82-22,73v13c-10.46,21.38-18.94,42.91-30,67q-4.005,3-8,6v10c-4.14,7.39-9.8,17.18-15,26q-5.505,4.5-11,9c-7.2,12-9.77,26.13-19,36-2.33.33-4.67,0.67-7,1-3.25,3.54-1.3,9.83-4,14-5.72,8.82-13.19,15.3-19,26q-19.995,19.005-40,38c-26.92,26.84-47.76,56.96-81,75-11.77,6.39-67.43,10.61-65-5-0.67-2-1.33-4-2-6-9.47,4.13-22.15-5.24-33-8h-65c-5.84,2.14-20.96,15.08-35,8-22.58-11.39-44.08-37.34-57-59-8.46-14.2-27.59-28.41-34-44v-9c-3.08-5.38-12.94-11.89-15-18,0.33-3,.67-6,1-9-0.82-3.95-6.49-8.1-8-11v-25c-7.52-19.94-3.29-52.27,4-71,9.29-23.87,14.58-24.9,31-42,9.36,5.95,20.52,4.95,31,11,19.74,11.4,41.25,33.64,53,53,21.89,36.07,17.57,83.47,58,101,13.78,5.97,39.59-1.12,54,4,15.57,5.53,32.5,14.56,45,19,21.84,7.76,65.71-41.77,77-53,8.2-8.16,46.94-54.45,44-58,6.75-9.43,50.52-82.6,45-93,7.16-17.25,14.27-39.97,23-56v-36c1.33-1,2.67-2,4-3,1.95-5.44-3.76-6.62-4-13-0.54-14.54,1.75-23.42,0-29v-68c-2.41-5.89-6.78-18.14-8-23q0.495-13.995,1-28c-13.35-41.39-29.57-77.82-49-114C2297.26,1785.58,2279.87,1774.06,2278,1754Zm-600,255c1.67,0.33,3.33.67,5,1,18.9,12.11,23.43,22.3,58,22,13.83-17.87,36.98-28.89,49-49,18.6-31.11,34.88-61.31,50-95,6.59-14.68,5.77-35.1,11-49v-31c6.33-22.06,3.49-68.04-23-78v-6c-2.33-.33-4.67-0.67-7-1-1.28-7.17-31.45-23.47-37-29-33.21-33.09-43.64-68.21-92-90-34.12-15.37-86.11-8.77-114-30-2.03-1.55-3.22-8.96-5-11-38.03-43.37-53.17-84.37-75-145-5.51-15.3,4.45-83.2,8-93v-80c4.77-11.94,1.92-30.99,7-44,4.97-12.73,10.4-31.42,15-44v-16c16.29-40.75,38.47-79.53,61-114,11.09-16.96,35.48-30.248,53-38,22.1-9.777,127.94-4.792,147,4,28.07,12.95,45.29,50.23,57,83v23c8.74,28.57.93,117.68-29,114-3.91-8.05-10.3-6.69-18-11-35.66-19.95-54.54,6.73-85,19-12.65,5.1-22.67,5.18-36,9-1.36,6.85-22.14,30.35-27,42-9.12,21.87-10.38,52.5-18,74v20c-5.81,13.77-15.1,49.79-3,66,15.76,21.1,58.12,38.32,82,52,13.63,7.81,31.15,10.78,40,23,20.21,27.92,41.05,89.28,70,105,47.63,25.87,75.49,52.4,104,97,3.09,4.84,11.45,10.98,14,16,13.33,26.26,13.94,61.16,27,88-0.68,12.85,2.83,29.28,7,40v20c0.22,13.01.97,20.27,4,29,7.17,20.66-3.34,89.09-8,101v27c-3.27,8.93-2.33,15.99-7,29l-8,8c-3.89,8.42-1.86,16.18-7,23-2.67,1-5.33,2-8,3-24.74,44.35-47.24,71.7-92,96-26.85,14.58-31.18,37-76,37h-22c-68-25.7-126.72-73.25-169-128-10.72-13.88-43.09-72.16-59-74-0.67.33-1.33,0.67-2,1-0.04,16.73,3.82,34.18,8,47q1.5,27.99,3,56c1.33,0.67,2.67,1.33,4,2v32c13.46,35.32,11.47,84.45,23,120,11.33,34.93-14.82,118.12-48,102-35.39-17.2-34.01-108.48-34-165v-51c-5.47-18.13-2.61-59.39-11-84v-23c-7.66-24.4-15.68-63.34-19-89-0.41-3.18,4.9-40.63,0-52-7.54-17.49-8.96-46.82-15-62v-23c-5.96-18.95-7.97-48.99-15-67v-31c-4.83-12.66-7.95-33.7-8-50q-4.5-4.005-9-8c-16.12.19-26.64,10.24-38,15-15.79,6.61-49.47-2.23-67,3-20.02,5.98-90.15,14.97-113,1a15.22,15.22,0,0,0-5,5q-0.495,7.995-1,16c-6.45,16.43-9.12,31.37-15,48v12c-42.23,107.06-61.28,238.06-98,353-6.6,20.67-11.52,55.62-18,73v26c-2.91,10.04-4.09,36.27-8,46v32c-4.71,9.95-10.87,44.43-19,52-2.33.67-4.67,1.33-7,2-7.3,10.33-12.454,21.23-26,25-34.388,9.56-46.889-33.06-56-52-23.834-49.54-40.441-214.06-18-280q-0.5-8.505-1-17c0.038-13.76,1.907-41.05,8-46-6.742-10.02-5.545-40.31-4-57,3.143-33.94,11.533-67.86,8-111-0.825-10.07,2.828-55.94,7-67V1635c0-23.11,3.543-63.45,0-74v-46c-2.787-6.97-4-16.86-4-29v-24c-9.783-28.1-3-106.27-3-143,0-18.62-1.894-43.89,3-55-1.333-1.33-2.667-2.67-4-4,9.142-18.45,5.813-136.61-11-152-1,.33-2,0.67-3,1-42.907,121.68-85.647,243.1-129,362-4.413,12.1-2.281,22.07-7,34-23.248,58.77-40.673,125.71-60,183v15c-1.239,3.68-6.8,12.22-8,16v19c-24.77,62.54-28.761,149.66-76,192-84.125.64-146.5-122.23-174-178-9.524-19.32-25.892-31.7-36-51h-4c-14.746,14.9-22.8,44.93-14,70,1.466,4.18,7.8,17.35,4,27-6.33,16.06-7,49.58-7,76v35c-5.817,18.47-7.871,61.67-4,72,2.48,6.62-2.992,8.47-4,11v35c0,21.31-1.973,41.34-7,58-2.694,8.93.666,34.7-4,45v26c0,23.33.149,41.27-4,54v47c0,29.57-3.819,121.67-15,134-4.1,4.52-14.773,7.81-20,11q-4.5-1.995-9-4c-1.593-10.48-11.113-13.86-15-22v-16c-1.315-3.55-6.841-12.28-8-16-5.288-16.96,12.309-52.35,4-75-13.832-37.71-8.25-93.1-22-133-2.077-6.03,3.552-7.22,4-11q-2-4.005-4-8v-83c-2.555-7.89-5.057-30.24-8-38v-31c-6-15.15,1.732-44.26-3-62-4.082-15.3-3.61-49.28,0-69q-0.5-15-1-30c0-32.62-1.331-78.02,4-96v-46c8.062-21.31-3.544-63.06,4-83,12.175-32.18,7.581-73.78,19-104,3.53-9.34-1.492-44.13-4-50-3.317-7.76-11.8-17.03-15-25-4.509-11.23-3.59-16.71-8-28q-7.5-13.005-15-26l1-13q-4-4.005-8-8v-12c-3.036-7.95-11.664-17.33-15-25-12.559-28.87-15.6-66.42,10-85,41.338,2.68,44.97,51.56,70,71,27.159-20.64,7.435-49.41,17-86,1.614-6.17,6.518-10.27,9-19,6.435-.66,5.777-1.56,7-7,27.707-.12,21.7,16.08,29,36,4.56,12.44,9.792,37,15,52v124c3.133,9.81,2.108,23.6,7,36v16c9,20.52,34.709,35.53,45,55v9l15,18c7.455,12.43,8.5,23.84,15,38q4,4.005,8,8c4.589,12.25,3.817,24.58,11,34,1.909,2.5,14.63,11.01,18,16,5.1,7.55,3.7,20.37,8,29,9.056,18.18,24.729,36.6,34,55,10.9,21.64,45.219,105.08,64,111,2.039-11.77,9.971-21.01,15-30,3.769-6.74,1.6-12.71,4-20,8.312-25.29,19.307-53.43,27-80,3.076-10.62,1.308-26.5,7-41,27.145-69.15,43.359-148.66,75-212,4.817-9.64.234-17.95,4-28,11.626-31.02,20.568-78.03,34-112v-20c1.026-2.93,5.959-10.51,7-13v-13c8.636-19.62,11.275-41.66,22-61q0.5-7.5,1-15c32.273-65.3,51.369-137.38,82-205l23-27h17c5.019,7.079,16.494,11.807,20,20,3.884,9.075,2.417,30.572,7,42,4.085,10.187,9.238,30.08,15,44v20c11.15,26.92,7.675,68.32,19,101,3.64,10.5.7,25.22,4,34q-0.5,38.49-1,77c9.39,29.49,8,58.26,8,95v41c2.37,7.58,4,26.17,4,46v30c1.42,3.82,4.33,4.21,4,10-0.35,6.3-4.64,16.14-4,20,1.26,7.64,6.91,30.11,11,40q0.495,19.995,1,40c2.33,1,4.67,2,7,3,8.55-12.48,80.35-26.13,97-26,4.57-7.43,12.57-15.71,16-24,6.86-16.56,3.32-33.2,11-50,22.91-50.08,35.41-117.58,56-171v-16c1.65-4.24,6.3-17.76,8-22v-17c11.89-25.77,26.17-57.61,37-87,7.81-21.19,8.5-44.29,15-60v-16q4.005-6,8-12v-20c22-46.56,17.09-139.094,51-173l13,3c11.53,18.535,24.21,41.065,33,63-0.33,3.333-.67,6.667-1,10,3.41,13.616,10.65,35.83,16,50q-0.495,10.5-1,21c0.73,4.21,6.58,16.1,8,20v31c1.21,3.18,6.88,11.64,8,15q-0.495,12-1,24c0.73,4.21,6.57,16.1,8,20v16c5.18,13.64,9.51,37.63,15,51,7.02,17.1-2.35,55.62,4,73,10.61,29.03,13.78,63.28,26,92v31c14.9,40.83,8.97,102.04,23,143q-0.495,12-1,24c0.85,5.21,5.99,22.28,8,27v28c3.66,8.61.09,24.41,4,34,16.75,41.13,3.41,119.3,16,155,1.67-.33,3.33-0.67,5-1q7.5-4.995,15-10c64.03,11.58,51.66,52.96,73,104,6.97,16.67,20.44,39.8,33,52,4.88,4.74,14.72,7.96,19,13,8.57,10.11,8.76,18,23,23v6Zm1028-960c0.33,1.33.67,2.67,1,4h1c0.67-1.33,1.33-2.67,2-4h-4Zm-903,3c-0.33,1.33-.67,2.67-1,4,1.33-.33,2.67-0.67,4-1v-1C1805,1053.33,1804,1052.67,1803,1052Zm919,4c-13.8,36.35-12.36,82.31-28,122-4.98,12.64-.02,24.62-4,35-17.35,45.27-30.21,96.1-45,142q0.495,8.505,1,17c-3.73,15.26-17.09,46.18-15,65,0.79,7.13-5.98,20.72-8,26-4.48,11.69-21.18,91.03-17,100,59.82,0.24,129.42,6.41,160-5,0.14-24.11-5.21-37.61-11-57q1.995-7.995,4-16c-10.97-28.99-5.49-70.51-15-96v-57c-0.02-23.08-5.12-58.62-8-78v-89c-0.63-15.6-3.98-16.02-4-36-0.02-19.84,1.17-40.08-3-51-2.63-6.89.39-16.81-2-22h-5Zm-1388,4c-9.91,26.85-14.63,63.01-24,88v24c-19.73,57.8-27.48,122.12-52,177v20c-3.63,10.43-7.33,30.24-12,41v13c-6.88,18.35-36.15,126.03-28,144,7.53-.27,7.5-2.55,11-4,13.84-5.71,62.95,1.57,72,4,6.94,1.86,63.78-5.38,77-9-2.22-24.1-7.07-66.01-15-87v-50c-3.06-9.1-5-22.03-7-28v-33c0-24.02-.55-65.71-8-84v-74c0-27.5.8-77.33-7-98q-0.495-22.005-1-44h-6Zm1049,19v7h3c0.67-.33,1.33-0.67,2-1v-6h-5Zm568,22c-0.33,1.33-.67,2.67-1,4h10c0.33-.67.67-1.33,1-2-0.33-.67-0.67-1.33-1-2h-9Zm-1343,36c-0.67,1-1.33,2-2,3,0.67,1,1.33,2,2,3l3-3Zm184,20c-1.53,3.15-1.93,4.11-1,8h3c1.33-2,2.67-4,4-6-0.33-.67-0.67-1.33-1-2h-5Zm-391,31c0.28,2.37-.22,1.25,1,4,0.67-1.33,1.33-2.67,2-4h-3Zm315,11v7h3l1-1v-4C1718.67,1200.33,1717.33,1199.67,1716,1199Zm-143,240c2.67-.33,5.33-0.67,8-1-0.67-2.33-1.33-4.67-2-7h-1c-1.67.33-3.33,0.67-5,1v7Zm162,105c0.28,2.37-.22,1.25,1,4,0.67-1.33,1.33-2.67,2-4h-3Zm-566,26c-0.33,1.33-.67,2.67-1,4,1.33-.33,2.67-0.67,4-1v-1l-2-2h-1Zm41,23c-1.15,3.39-1.07,2.4-1,6,1.33,1.67,2.67,3.33,4,5,1.33-.33,2.67-0.67,4-1v-1C1214.39,1599.3,1213.17,1595.17,1210,1593Zm-30,3c-0.33,2.67-.67,5.33-1,8h4v-6C1182,1597.33,1181,1596.67,1180,1596Zm1301,12c0.33,1.33.67,2.67,1,4,1-.67,2-1.33,3-2v-1C2483.67,1608.67,2482.33,1608.33,2481,1608Zm-1095,30c0.28,2.37-.22,1.25,1,4,0.67-1.33,1.33-2.67,2-4h-3Zm-315,22c-1,1.33-2,2.67-3,4-9.34-.36-31.01-2.67-35,3-11.72,30.38-4,91.41-4,132,0,37.67-1.51,83.77,4,115,2.6,14.72-2.45,66.67,3,84,6.62,21.07-4.32,41.05-3,56,1,0.33,2,.67,3,1,1.33-.33,2.67-0.67,4-1,1.37-7.03,6.04-10.88,8-16v-31c1.13-2.69,7.02-11.33,8-14v-20c6.41-18.57,8.16-45.27,15-63v-25c8.84-27.08,12.84-66.34,22-91v-19c7.32-21.59,11.57-41.8,19-64v-27c1.42-3.75,5.04-3.67,3-10-2.54-5.46-16.55-16.29-25-14-2.76.75-3.3,5.81-10,4C1076.75,1663.12,1077.17,1660.53,1071,1660Zm1377,0c-1,1.33-2,2.67-3,4-17.55-.16-34.43,4.08-42,3-4.2-.6-12.76-3.98-20-2,3.01,31.2,31.63,78.75,45,105,6.34,12.44,2.4,23.26,7,38,1.1,3.51,6.72,11.85,8,15v24c5.27,14.56,4.6,34.87,8,53,4.24,1.4,4.71,1.23,7-2,5.02-12.81,3.85-25.58,8-36v-17c13.72-31.19,18.39-77.12,30-107,2.86-7.37,8.66-64.13,7-68-1.33-2-2.67-4-4-6C2478.57,1664.09,2464.69,1660.24,2448,1660Zm247,8v3c1,0.33,2,.67,3,1v-4h-3Zm150,86c0.67,1.33,1.33,2.67,2,4h1c0.33-.67.67-1.33,1-2v-1C2847.67,1754.67,2846.33,1754.33,2845,1754ZM294,1893c0.667,1.33,1.333,2.67,2,4,0.667-.67,1.333-1.33,2-2C296.667,1894.33,295.333,1893.67,294,1893Zm11,0c0.667,1.33,1.333,2.67,2,4,0.667-1.33,1.333-2.67,2-4h-4Zm1538,11c-0.33.67-.67,1.33-1,2l2,2h2c0.33-.67.67-1.33,1-2C1845.67,1905.33,1844.33,1904.67,1843,1904Zm93,33c-1,.33-2,0.67-3,1,0.33,1.33.67,2.67,1,4,4.31-.21,4.83-0.26,7-2-0.67-1-1.33-2-2-3h-3Zm-18,5c0.33,1.33.67,2.67,1,4h1c0.67-1.33,1.33-2.67,2-4h-4Zm489,48c-0.33,1.33-.67,2.67-1,4h7v-4h-6Zm42,22-6,6v2l1,1,3-3c2.67-1,5.33-2,8-3C2452.72,2012.57,2453.4,2012.82,2449,2012Zm-35,23c-0.33,1.33-.67,2.67-1,4h4v-3C2416,2035.67,2415,2035.33,2414,2035Zm485,11c-0.67.33-1.33,0.67-2,1,0.33,1.33.67,2.67,1,4h6c0.33-.67.67-1.33,1-2C2902.72,2046.57,2903.4,2046.82,2899,2046Zm-482,16v7h4v-7h-4Zm-614,3c-0.33,1.33-.67,2.67-1,4h7c-0.33-1.33-.67-2.67-1-4h-5Zm112,4c-0.33.67-.67,1.33-1,2l2,2c0.67-1.33,1.33-2.67,2-4h-3Zm-998,30-1,7c0.667,0.33,1.333.67,2,1,1-.67,2-1.33,3-2v-4C919.667,2100.33,918.333,2099.67,917,2099Zm2041,105c0.02,3.06-.96,1.4,1,4l2-2C2960,2205.33,2959,2204.67,2958,2204Zm-1463,94c-0.33.67-.67,1.33-1,2,1.33,0.67,2.67,1.33,4,2v-4h-3Z"/>
</svg>
